<svg width="193" height="37" viewBox="0 0 193 37" fill="none" xmlns="http://www.w3.org/2000/svg">
<g clip-path="url(#clip0_1_528)">
<path d="M94.9285 9.14633C93.8305 9.14633 92.9305 10.0463 92.9305 11.1443C92.9305 12.2423 93.8305 13.1423 94.9285 13.1423C96.0265 13.1423 96.9265 12.2423 96.9265 11.1443C96.9218 10.6159 96.7098 10.1104 96.3361 9.73673C95.9624 9.36304 95.4569 9.15103 94.9285 9.14633ZM29.8945 16.8323C24.0805 13.3763 14.5045 13.0523 8.97846 14.7443C8.5512 14.873 8.09046 14.8279 7.69619 14.619C7.30192 14.4101 7.00594 14.0541 6.87246 13.6283C6.74384 13.2011 6.78887 12.7403 6.9978 12.3461C7.20673 11.9518 7.56269 11.6558 7.98846 11.5223C14.3425 9.59633 24.9085 9.95633 31.6045 13.9343C31.9862 14.1634 32.2625 14.5335 32.3737 14.9646C32.4848 15.3957 32.4219 15.8532 32.1985 16.2383C31.9688 16.6195 31.5988 16.8953 31.1679 17.0064C30.737 17.1175 30.2797 17.055 29.8945 16.8323ZM29.6965 21.9263C29.5016 22.2421 29.1901 22.4682 28.8296 22.5558C28.469 22.6434 28.0885 22.5854 27.7705 22.3943C22.9285 19.4243 15.5485 18.5603 9.84246 20.2883C9.48682 20.394 9.10381 20.355 8.77681 20.1797C8.44981 20.0044 8.20529 19.707 8.09646 19.3523C7.99075 18.9967 8.0298 18.6137 8.20509 18.2867C8.38039 17.9597 8.67776 17.7152 9.03246 17.6063C15.5665 15.6263 23.7025 16.5803 29.2465 20.0003C29.4028 20.0969 29.5386 20.2235 29.6459 20.3727C29.7532 20.5219 29.83 20.6908 29.8718 20.8698C29.9136 21.0488 29.9197 21.2342 29.8896 21.4156C29.8595 21.5969 29.7938 21.7705 29.6965 21.9263ZM27.5005 26.8223C27.344 27.0763 27.0938 27.2583 26.804 27.3291C26.5143 27.3998 26.2084 27.3536 25.9525 27.2003C21.7225 24.6083 16.4125 24.0323 10.1485 25.4723C10.0042 25.5065 9.85464 25.5116 9.7084 25.4874C9.56216 25.4633 9.42217 25.4103 9.29657 25.3316C9.17097 25.2529 9.06226 25.15 8.97675 25.0289C8.89125 24.9079 8.83064 24.771 8.79846 24.6263C8.76433 24.4821 8.75919 24.3325 8.78335 24.1863C8.80751 24.04 8.86048 23.9 8.93919 23.7744C9.0179 23.6488 9.12078 23.5401 9.24185 23.4546C9.36292 23.3691 9.49978 23.3085 9.64446 23.2763C16.5025 21.7103 22.3885 22.3763 27.1225 25.2743C27.3752 25.4319 27.5562 25.682 27.6268 25.9713C27.6975 26.2606 27.6521 26.5661 27.5005 26.8223ZM19.2385 0.866333C9.30247 0.866333 1.23846 8.93033 1.23846 18.8663C1.23846 28.8023 9.30247 36.8663 19.2385 36.8663C29.1745 36.8663 37.2385 28.8023 37.2385 18.8663C37.2385 8.93033 29.1745 0.866333 19.2385 0.866333ZM50.2165 17.4803C47.1025 16.7423 46.5625 16.2203 46.5625 15.1223C46.5625 14.0963 47.5345 13.3943 48.9745 13.3943C50.3785 13.3943 51.7645 13.9163 53.2225 15.0143C53.2585 15.0503 53.3305 15.0683 53.3845 15.0503C53.4385 15.0503 53.4925 15.0143 53.5105 14.9603L55.0225 12.8183C55.0765 12.7283 55.0765 12.6023 54.9865 12.5483C53.3011 11.1748 51.1843 10.4416 49.0105 10.4783C45.6625 10.4783 43.3045 12.4943 43.3045 15.3743C43.3045 18.4703 45.3205 19.5503 48.8125 20.3963C51.7825 21.0803 52.2865 21.6563 52.2865 22.6823C52.2865 23.8163 51.2785 24.5183 49.6405 24.5183C47.8225 24.5183 46.3465 23.9063 44.6905 22.4663C44.6513 22.4302 44.5997 22.4109 44.5465 22.4123C44.4925 22.4123 44.4385 22.4483 44.4025 22.4843L42.6925 24.5003C42.6205 24.5903 42.6385 24.7163 42.7105 24.7883C44.5868 26.492 47.0341 27.4298 49.5685 27.4163C53.1865 27.4163 55.5265 25.4363 55.5265 22.3763C55.5445 19.8383 53.9965 18.3983 50.2165 17.4803ZM66.3445 20.9543C66.3445 23.1323 64.9945 24.6623 63.0685 24.6623C61.1605 24.6623 59.7385 23.0783 59.7385 20.9543C59.7385 18.8483 61.1785 17.2463 63.0685 17.2463C64.9765 17.2463 66.3445 18.7943 66.3445 20.9543ZM63.7165 14.4203C62.1505 14.4203 60.8725 15.0323 59.8105 16.3103V14.8883C59.8105 14.7803 59.7205 14.6903 59.6125 14.6903H56.8225C56.7145 14.6903 56.6245 14.7803 56.6245 14.8883V30.7103C56.6245 30.8183 56.7145 30.9083 56.8225 30.9083H59.6125C59.7205 30.9083 59.8105 30.8183 59.8105 30.7103V25.7063C60.2896 26.2721 60.8887 26.724 61.5644 27.0291C62.2401 27.3343 62.9752 27.485 63.7165 27.4703C66.6325 27.4703 69.5845 25.2203 69.5845 20.9363C69.5845 16.6523 66.6325 14.4203 63.7165 14.4203ZM77.1445 24.6803C75.1465 24.6803 73.6525 23.0783 73.6525 20.9543C73.6525 18.8123 75.1105 17.2643 77.1085 17.2643C79.1245 17.2643 80.6365 18.8663 80.6365 20.9903C80.6185 23.1323 79.1605 24.6803 77.1445 24.6803ZM77.1445 14.4203C73.4005 14.4203 70.4485 17.3003 70.4485 20.9903C70.4485 24.6443 73.3645 27.4883 77.0905 27.4883C80.8525 27.4883 83.8045 24.6083 83.8045 20.9363C83.8045 17.2823 80.8705 14.4203 77.1445 14.4203ZM91.8145 14.6723H88.7545V11.5403C88.7545 11.4323 88.6645 11.3423 88.5565 11.3423H85.7665C85.6585 11.3423 85.5685 11.4323 85.5685 11.5403V14.6723H84.2185C84.1105 14.6723 84.0205 14.7623 84.0205 14.8703V17.2643C84.0205 17.3723 84.1105 17.4623 84.2185 17.4623H85.5505V23.6543C85.5505 26.1563 86.7925 27.4163 89.2585 27.4163C90.2485 27.4163 91.0765 27.2183 91.8685 26.7683C91.9015 26.7515 91.9292 26.7257 91.9483 26.6938C91.9674 26.662 91.9771 26.6254 91.9765 26.5883V24.3023C91.9767 24.2674 91.9687 24.2328 91.953 24.2015C91.9374 24.1703 91.9146 24.1431 91.8865 24.1223C91.8325 24.0863 91.7425 24.0863 91.6885 24.1043C91.1485 24.3743 90.6265 24.5003 90.0505 24.5003C89.1505 24.5003 88.7545 24.0863 88.7545 23.1863V17.4263H91.8145C91.9225 17.4263 92.0125 17.3363 92.0125 17.2283V14.8703C92.0125 14.7623 91.9225 14.6723 91.8145 14.6723ZM102.488 14.6903V14.3123C102.488 13.1783 102.92 12.6743 103.892 12.6743C104.468 12.6743 104.936 12.7823 105.458 12.9623C105.53 12.9803 105.584 12.9803 105.638 12.9263C105.692 12.8903 105.728 12.8183 105.728 12.7643V10.4243C105.728 10.3343 105.674 10.2623 105.584 10.2263C104.831 10.0023 104.048 9.8931 103.262 9.90233C100.688 9.90233 99.3385 11.3423 99.3385 14.0783V14.6723H98.0065C97.8985 14.6723 97.8085 14.7623 97.8085 14.8703V17.2823C97.8085 17.3903 97.8985 17.4803 98.0065 17.4803H99.3385V27.0203C99.3385 27.1283 99.4285 27.2183 99.5365 27.2183H102.326C102.434 27.2183 102.524 27.1283 102.524 27.0203V17.4803H105.116L109.094 27.0203C108.644 28.0283 108.194 28.2263 107.582 28.2263C107.096 28.2263 106.574 28.0823 106.052 27.7943C106.029 27.7783 106.002 27.7683 105.974 27.7652C105.945 27.7621 105.917 27.7659 105.89 27.7763C105.837 27.7962 105.792 27.8345 105.764 27.8843L104.828 29.9543C104.792 30.0443 104.828 30.1703 104.918 30.2243C105.908 30.7643 106.79 30.9803 107.888 30.9803C109.94 30.9803 111.074 30.0263 112.082 27.4523L116.906 14.9783C116.927 14.9125 116.92 14.8414 116.888 14.7803C116.87 14.7543 116.846 14.7326 116.818 14.7171C116.79 14.7015 116.758 14.6924 116.726 14.6903H113.828C113.738 14.6903 113.666 14.7443 113.63 14.8343L110.678 23.2943L107.42 14.8163C107.403 14.7789 107.374 14.7473 107.339 14.725C107.304 14.7028 107.264 14.6907 107.222 14.6903H102.488ZM96.2965 14.6723H93.5065C93.3985 14.6723 93.3085 14.7623 93.3085 14.8703V27.0023C93.3085 27.1103 93.3985 27.2003 93.5065 27.2003H96.2965C96.4045 27.2003 96.4945 27.1103 96.4945 27.0023V14.8703C96.4945 14.7623 96.4045 14.6723 96.2965 14.6723ZM119.408 24.7523H118.904V25.4003H119.408C119.66 25.4003 119.822 25.2743 119.822 25.0763C119.822 24.8603 119.66 24.7523 119.408 24.7523ZM119.75 25.6883L120.308 26.4623H119.84L119.336 25.7423H118.904V26.4623H118.508V24.4103H119.426C119.912 24.4103 120.218 24.6623 120.218 25.0583C120.218 25.4003 120.02 25.5983 119.75 25.6883ZM119.318 23.7263C119.085 23.7243 118.853 23.7691 118.637 23.8582C118.421 23.9472 118.225 24.0787 118.06 24.2448C117.896 24.411 117.766 24.6084 117.679 24.8254C117.593 25.0424 117.55 25.2746 117.554 25.5083C117.551 25.7394 117.594 25.9687 117.681 26.183C117.767 26.3972 117.895 26.5922 118.058 26.7564C118.22 26.9206 118.414 27.0508 118.627 27.1394C118.841 27.228 119.069 27.2732 119.3 27.2723C119.534 27.2744 119.766 27.2296 119.982 27.1405C120.198 27.0514 120.394 26.92 120.559 26.7538C120.723 26.5877 120.853 26.3903 120.94 26.1733C121.026 25.9563 121.069 25.724 121.064 25.4903C121.064 24.5003 120.308 23.7263 119.318 23.7263ZM119.3 27.4523C119.043 27.4531 118.787 27.4029 118.549 27.3046C118.31 27.2063 118.094 27.0618 117.911 26.8794C117.729 26.6971 117.585 26.4805 117.486 26.2421C117.388 26.0037 117.338 25.7482 117.338 25.4903C117.338 24.4103 118.202 23.5283 119.3 23.5283C119.558 23.5275 119.814 23.5777 120.052 23.6761C120.291 23.7744 120.507 23.9189 120.69 24.1012C120.872 24.2836 121.016 24.5002 121.115 24.7386C121.213 24.977 121.263 25.2325 121.262 25.4903C121.261 26.0102 121.054 26.5083 120.686 26.8759C120.318 27.2435 119.82 27.4508 119.3 27.4523ZM130.676 25.2563C133.772 25.2563 136.382 23.1683 136.382 18.9743C136.382 14.7443 133.826 12.6203 130.73 12.6203H127.238V25.2743H130.676V25.2563ZM124.916 27.3083V10.5503H130.784C135.032 10.5503 138.758 13.4663 138.758 18.9743C138.758 24.4643 134.996 27.3263 130.748 27.3263H124.916V27.3083ZM149.09 20.4683C149.036 18.8303 147.974 17.5523 145.976 17.5523C144.104 17.5523 142.97 18.9923 142.88 20.4683H149.09ZM151.34 24.0683C150.71 26.0843 148.874 27.6683 146.228 27.6683C143.186 27.6683 140.504 25.4543 140.504 21.5843C140.504 18.0203 143.078 15.5723 145.94 15.5723C149.432 15.5723 151.394 17.9843 151.394 21.5303C151.394 21.8183 151.376 22.1063 151.34 22.2323H142.772C142.826 24.2663 144.284 25.6883 146.192 25.6883C148.028 25.6883 148.964 24.6803 149.378 23.4023L151.34 24.0683ZM154.832 23.6543C154.976 24.8423 155.876 25.7783 157.478 25.7783C158.738 25.7783 159.422 25.0763 159.422 24.2663C159.422 23.5643 158.9 23.0063 157.964 22.8083L156.02 22.3763C154.238 21.9983 153.176 20.7923 153.176 19.1903C153.176 17.2463 154.994 15.5903 157.226 15.5903C160.34 15.5903 161.312 17.6243 161.546 18.6323L159.584 19.3703C159.494 18.7763 159.008 17.4803 157.226 17.4803C156.092 17.4803 155.336 18.2183 155.336 18.9923C155.336 19.6763 155.768 20.1803 156.632 20.3603L158.468 20.7563C160.52 21.2063 161.618 22.4663 161.618 24.1403C161.618 25.7423 160.268 27.6683 157.46 27.6683C154.346 27.6683 153.014 25.6523 152.834 24.3563L154.832 23.6543ZM164.012 15.9503H166.208V27.3263H164.012V15.9503ZM165.092 10.0283C165.992 10.0283 166.694 10.7303 166.694 11.6303C166.695 11.8401 166.654 12.0479 166.574 12.2417C166.493 12.4354 166.375 12.6111 166.226 12.7586C166.077 12.9061 165.9 13.0224 165.705 13.1006C165.51 13.1789 165.302 13.2175 165.092 13.2143C164.884 13.2155 164.678 13.1754 164.485 13.0962C164.292 13.017 164.117 12.9004 163.97 12.7531C163.822 12.6057 163.706 12.4306 163.627 12.2379C163.547 12.0452 163.507 11.8387 163.508 11.6303C163.508 10.7483 164.228 10.0283 165.092 10.0283ZM177.386 21.2603C177.386 19.0643 176.054 17.6243 174.146 17.6243C172.184 17.6243 170.852 19.0643 170.852 21.2603C170.852 23.4743 172.13 24.8963 174.146 24.8963C176.072 24.8963 177.386 23.4563 177.386 21.2603ZM170.726 27.4343C170.888 29.0183 172.094 30.2243 173.822 30.2243C176.216 30.2243 177.296 29.0003 177.296 26.5343V24.8963C176.756 25.9403 175.514 26.7683 173.822 26.7683C170.798 26.7683 168.602 24.4823 168.602 21.2603C168.602 18.1823 170.708 15.7343 173.822 15.7343C175.568 15.7343 176.756 16.4003 177.314 17.5343V15.9503H179.51V26.4803C179.51 29.3603 178.088 32.1863 173.804 32.1863C170.96 32.1863 168.836 30.3863 168.548 27.9563L170.726 27.4343ZM184.856 27.3083H182.642V15.9503H184.82V17.5883C185.648 16.1663 186.998 15.6263 188.312 15.6263C191.03 15.6263 192.38 17.5883 192.38 20.1263V27.3443H190.166V20.5043C190.166 18.9203 189.5 17.6423 187.52 17.6423C185.774 17.6423 184.874 19.0283 184.874 20.7563V27.3083H184.856Z" fill="#171313"/>
</g>
<defs>
<clipPath id="clip0_1_528">
<rect width="192" height="36" fill="white" transform="translate(0.938477 0.866333)"/>
</clipPath>
</defs>
</svg>
